<svg xmlns="http://www.w3.org/2000/svg" width="1200" height="430" viewBox="0 0 1200 430" role="img"><defs><linearGradient id="bg" x1="0" y1="0" x2="1" y2="1"><stop stop-color="#010409"/><stop offset=".55" stop-color="#06101c"/><stop offset="1" stop-color="#0d1117"/></linearGradient><linearGradient id="line" x1="0" y1="0" x2="1" y2="0"><stop stop-color="#e8834a" stop-opacity=".04"/><stop offset=".5" stop-color="#ffb26d" stop-opacity="1"/><stop offset="1" stop-color="#e8834a" stop-opacity=".04"/></linearGradient><filter id="og" x="-50%" y="-50%" width="200%" height="200%"><feGaussianBlur stdDeviation="3" result="b"/><feMerge><feMergeNode in="b"/><feMergeNode in="SourceGraphic"/></feMerge></filter><filter id="sg" x="-50%" y="-50%" width="200%" height="200%"><feGaussianBlur stdDeviation="7" result="b"/><feMerge><feMergeNode in="b"/><feMergeNode in="SourceGraphic"/></feMerge></filter><style>.ui{font-family:-apple-system,BlinkMacSystemFont,Segoe UI,system-ui,sans-serif}.title{fill:#f5f7fb;font-size:58px;font-weight:820;letter-spacing:-2.5px}.eyebrow{fill:#ffb26d;font-size:13px;font-weight:800;letter-spacing:3px}.body{fill:#b6c2d4;font-size:19px}.h{fill:#f5f7fb;font-size:24px;font-weight:800}.c{fill:#f5f7fb;font-size:21px;font-weight:760}.sum{fill:#b6c2d4;font-size:13.5px}.s{fill:#d7dfec;font-size:14px}.m{fill:#7e8a9b;font-size:12px;font-weight:700;letter-spacing:1.5px}.p{fill:rgba(17,24,33,.78);stroke:rgba(255,255,255,.10)}.o{stroke:#e8834a;fill:none;stroke-width:2;filter:url(#og)}.torus{fill:none;stroke-linecap:round;stroke-linejoin:round;stroke-dasharray:820;animation:trace 13s linear infinite}@keyframes trace{to{stroke-dashoffset:-820}}</style></defs><rect width="1200" height="430" rx="22" fill="url(#bg)"/><g class="ui"><rect x=".5" y=".5" width="1199" height="429" rx="22" fill="none" stroke="rgba(255,255,255,.10)"/><g transform="translate(36 30)"><path class="o" d="M0 18h8l4-14 6 28 5-18h8"/><path class="o" d="M0 38h34"/><text x="52" y="27" class="h">Active Projects</text><text x="52" y="49" class="m">technical build focus · hardware · infra · web systems</text></g><g transform="translate(36 96)"><rect width="350" height="285" rx="18" class="p"/><circle cx="28" cy="30" r="5" fill="#22c55e"/><text x="46" y="35" class="m">ACTIVE</text><text x="24" y="74" class="c">60 GHz mmWave Radar</text><text x="24" y="104" class="sum">Contactless physiology for sleep/seated health monitoring.</text><text x="24" y="146" class="s">• UART radar frame parser · checksum handling</text><text x="24" y="176" class="s">• HR/BR/presence/range telemetry extraction</text><text x="24" y="206" class="s">• VisLog API · live browser dashboard stream</text><text x="24" y="236" class="s">• ESP32-C6 WiFi provisioning · captive portal</text><text x="24" y="266" class="s">• nRF52840 BLE bridge + ESP32 bring-up</text></g><g transform="translate(425 96)"><rect width="350" height="285" rx="18" class="p"/><circle cx="28" cy="30" r="5" fill="#4c8dff"/><text x="46" y="35" class="m">FINALIZED</text><text x="24" y="74" class="c">Home Lab Server</text><text x="24" y="104" class="sum">Local-first storage, backups, services, and private AI.</text><text x="24" y="146" class="s">• Proxmox VE virtualization · VMs/LXC layout</text><text x="24" y="176" class="s">• TrueNAS datasets · snapshots · backup policy</text><text x="24" y="206" class="s">• Nextcloud · Immich · local data organization</text><text x="24" y="236" class="s">• Docker Compose services · ClawCode tooling</text><text x="24" y="266" class="s">• Raspberry Pi edge services + monitoring</text></g><g transform="translate(814 96)"><rect width="350" height="285" rx="18" class="p"/><circle cx="28" cy="30" r="5" fill="#22c55e"/><text x="46" y="35" class="m">ACTIVE</text><text x="24" y="74" class="c">Professional Profile</text><text x="24" y="104" class="sum">Recruiter-facing documentation and portfolio automation.</text><text x="24" y="146" class="s">• Astro · HTML/CSS · GitHub Pages deployment</text><text x="24" y="176" class="s">• GitHub Actions CI/CD · release assets</text><text x="24" y="206" class="s">• README SVG generation · cache busting</text><text x="24" y="236" class="s">• Plausible/referrer analytics pipeline</text><text x="24" y="266" class="s">• Portfolio tracking for recruiter traffic</text></g></g></svg>
