<svg xmlns="http://www.w3.org/2000/svg" width="1200" height="250" viewBox="0 0 1200 250" role="img"><defs><linearGradient id="bg" x1="0" y1="0" x2="1" y2="1"><stop stop-color="#010409"/><stop offset=".55" stop-color="#06101c"/><stop offset="1" stop-color="#0d1117"/></linearGradient><linearGradient id="line" x1="0" y1="0" x2="1" y2="0"><stop stop-color="#e8834a" stop-opacity=".08"/><stop offset=".22" stop-color="#e8834a"/><stop offset=".78" stop-color="#ffb26d"/><stop offset="1" stop-color="#e8834a" stop-opacity=".08"/></linearGradient><filter id="og" x="-50%" y="-50%" width="200%" height="200%"><feGaussianBlur stdDeviation="3" result="b"/><feMerge><feMergeNode in="b"/><feMergeNode in="SourceGraphic"/></feMerge></filter><filter id="sg" x="-50%" y="-50%" width="200%" height="200%"><feGaussianBlur stdDeviation="7" result="b"/><feMerge><feMergeNode in="b"/><feMergeNode in="SourceGraphic"/></feMerge></filter><style>.ui{font-family:-apple-system,BlinkMacSystemFont,Segoe UI,system-ui,sans-serif}.title{fill:#f5f7fb;font-size:58px;font-weight:820;letter-spacing:-2.5px}.eyebrow{fill:#ffb26d;font-size:13px;font-weight:800;letter-spacing:3px}.body{fill:#b6c2d4;font-size:19px}.h{fill:#f5f7fb;font-size:24px;font-weight:800}.c{fill:#f5f7fb;font-size:21px;font-weight:760}.s{fill:#b6c2d4;font-size:14px}.m{fill:#7e8a9b;font-size:12px;font-weight:700;letter-spacing:1.5px}.p{fill:rgba(17,24,33,.78);stroke:rgba(255,255,255,.10)}.o{stroke:#e8834a;fill:none;stroke-width:2;filter:url(#og)}.torus{fill:none;stroke-linecap:round;stroke-linejoin:round;stroke-dasharray:820;animation:trace 13s linear infinite}@keyframes trace{to{stroke-dashoffset:-820}}</style></defs><rect width="1200" height="250" rx="22" fill="url(#bg)"/><g class="ui"><rect x=".5" y=".5" width="1199" height="249" rx="22" fill="none" stroke="rgba(255,255,255,.10)"/><g transform="translate(36 30)"><path class="o" d="M0 18h8l4-14 6 28 5-18h8"/><path class="o" d="M0 38h34"/><text x="52" y="27" class="h">Active Projects</text><text x="52" y="49" class="m">current build focus</text></g><g transform="translate(36 96)"><rect width="350" height="120" rx="18" class="p"/><circle cx="28" cy="30" r="5" fill="#22c55e"/><text x="46" y="35" class="m">ACTIVE</text><text x="24" y="72" class="c">60 GHz mmWave radar</text><text x="24" y="102" class="s">ESP32-C6 · live dashboard · WiFi provisioning</text></g><g transform="translate(425 96)"><rect width="350" height="120" rx="18" class="p"/><circle cx="28" cy="30" r="5" fill="#22c55e"/><text x="46" y="35" class="m">ACTIVE</text><text x="24" y="72" class="c">Proxmox homelab</text><text x="24" y="102" class="s">TrueNAS · Nextcloud · Immich · containers</text></g><g transform="translate(814 96)"><rect width="350" height="120" rx="18" class="p"/><circle cx="28" cy="30" r="5" fill="#e8834a"/><text x="46" y="35" class="m">IN PROGRESS</text><text x="24" y="72" class="c">Profile asset system</text><text x="24" y="102" class="s">portfolio polish · animated README · GitHub Actions</text></g></g></svg>
