<svg xmlns="http://www.w3.org/2000/svg" width="1200" height="430" viewBox="0 0 1200 430" role="img" aria-label="Active projects"><defs><linearGradient id="bg" x1="0" y1="0" x2="1" y2="1"><stop stop-color="#010409"/><stop offset=".55" stop-color="#06101c"/><stop offset="1" stop-color="#0d1117"/></linearGradient><filter id="g" x="-50%" y="-50%" width="200%" height="200%"><feGaussianBlur stdDeviation="3" result="b"/><feMerge><feMergeNode in="b"/><feMergeNode in="SourceGraphic"/></feMerge></filter><style>.t{font-family:-apple-system,BlinkMacSystemFont,Segoe UI,system-ui,sans-serif}.h{fill:#f5f7fb;font-size:24px;font-weight:800}.c{fill:#f5f7fb;font-size:21px;font-weight:760}.sum{fill:#ffb26d;font-size:13.2px;font-weight:650}.s{fill:#d7dfec;font-size:14.2px}.m{fill:#7e8a9b;font-size:12px;font-weight:700;letter-spacing:1.5px}.p{fill:rgba(17,24,33,.78);stroke:rgba(232,131,74,.18);stroke-width:1}.o{stroke:#e8834a;fill:none;stroke-width:2;filter:url(#g)}</style></defs><rect width="1200" height="430" rx="22" fill="url(#bg)"/><g class="t"><rect x=".5" y=".5" width="1199" height="429" rx="22" fill="none" stroke="rgba(232,131,74,.16)"/><g transform="translate(36 30)"><path class="o" d="M0 18h8l4-14 6 28 5-18h8"/><path class="o" d="M0 38h34"/><text x="52" y="27" class="h">Active Projects</text><text x="52" y="49" class="m">technical build focus · hardware · infra · web systems</text></g><g transform="translate(36 96)"><rect width="350" height="285" rx="18" class="p"/><circle cx="28" cy="30" r="5" fill="#22c55e"/><text x="46" y="35" class="m">ACTIVE</text><text x="24" y="74" class="c">60 GHz mmWave Radar</text><text x="24" y="104" class="sum">Contactless physiology for sleep/seated monitoring</text><text x="24" y="148" class="s">• UART radar parser · checksum handling</text><text x="24" y="178" class="s">• HR/BR/presence/range telemetry</text><text x="24" y="208" class="s">• VisLog API · browser data stream</text><text x="24" y="238" class="s">• ESP32-C6 WiFi portal · captive setup</text><text x="24" y="268" class="s">• nRF52840 BLE bridge · ESP32 bring-up</text></g><g transform="translate(425 96)"><rect width="350" height="285" rx="18" class="p"/><circle cx="28" cy="30" r="5" fill="#e8834a"/><text x="46" y="35" class="m">FINALIZED</text><text x="24" y="74" class="c">Home Lab Server</text><text x="24" y="104" class="sum">Local-first storage, backups, services, private AI</text><text x="24" y="148" class="s">• Proxmox VE · VM/LXC architecture</text><text x="24" y="178" class="s">• TrueNAS datasets · snapshots · backups</text><text x="24" y="208" class="s">• Nextcloud · Immich data organization</text><text x="24" y="238" class="s">• Docker Compose · ClawCode tooling</text><text x="24" y="268" class="s">• Raspberry Pi services · monitoring</text></g><g transform="translate(814 96)"><rect width="350" height="285" rx="18" class="p"/><circle cx="28" cy="30" r="5" fill="#22c55e"/><text x="46" y="35" class="m">ACTIVE</text><text x="24" y="74" class="c">Professional Profile</text><text x="24" y="104" class="sum">Recruiter-facing documentation and automation</text><text x="24" y="148" class="s">• Astro · HTML/CSS · GitHub Pages</text><text x="24" y="178" class="s">• GitHub Actions CI/CD · releases</text><text x="24" y="208" class="s">• README SVG generation · cache busting</text><text x="24" y="238" class="s">• Plausible/referrer analytics pipeline</text><text x="24" y="268" class="s">• Portfolio traffic tracking · recruiting UX</text></g></g></svg>
