<svg xmlns="http://www.w3.org/2000/svg" width="1200" height="430" viewBox="0 0 1200 430" role="img" aria-label="Active projects"><defs><linearGradient id="bg" x1="0" y1="0" x2="1" y2="1"><stop stop-color="#010409"/><stop offset=".55" stop-color="#06101c"/><stop offset="1" stop-color="#0d1117"/></linearGradient><filter id="g" x="-50%" y="-50%" width="200%" height="200%"><feGaussianBlur stdDeviation="3" result="b"/><feMerge><feMergeNode in="b"/><feMergeNode in="SourceGraphic"/></feMerge></filter><style>.t{font-family:-apple-system,BlinkMacSystemFont,Segoe UI,system-ui,sans-serif}.h{fill:#f5f7fb;font-size:24px;font-weight:800}.c{fill:#f5f7fb;font-size:21px;font-weight:760}.s{fill:#b6c2d4;font-size:13.5px}.m{fill:#7e8a9b;font-size:12px;font-weight:700;letter-spacing:1.5px}.k{fill:#ffb26d;font-size:12px;font-weight:800;letter-spacing:1.2px}.p{fill:rgba(17,24,33,.78);stroke:rgba(255,255,255,.10)}.o{stroke:#e8834a;fill:none;stroke-width:2;filter:url(#g)}</style></defs><rect width="1200" height="430" rx="22" fill="url(#bg)"/><g class="t"><rect x=".5" y=".5" width="1199" height="429" rx="22" fill="none" stroke="rgba(255,255,255,.10)"/><g transform="translate(36 30)"><path class="o" d="M0 18h8l4-14 6 28 5-18h8"/><path class="o" d="M0 38h34"/><text x="52" y="27" class="h">Active Projects</text><text x="52" y="49" class="m">technical build focus · hardware · infra · web systems</text></g><g transform="translate(36 96)"><rect width="350" height="285" rx="18" class="p"/><circle cx="28" cy="30" r="5" fill="#22c55e"/><text x="46" y="35" class="m">ACTIVE</text><text x="24" y="74" class="c">60 GHz mmWave Radar</text><text x="24" y="108" class="k">USE CASE</text><text x="24" y="130" class="s">Contactless physiology during sleep/sitting</text><text x="24" y="158" class="k">SYSTEM</text><text x="24" y="180" class="s">UART frame decode · VisLog API layer</text><text x="24" y="204" class="s">HR/BR/presence/range telemetry stream</text><text x="24" y="232" class="k">EMBEDDED</text><text x="24" y="254" class="s">ESP32-C6 WiFi portal + live web UI</text><text x="24" y="278" class="s">nRF52840 BLE + ESP32 bridge bring-up</text></g><g transform="translate(425 96)"><rect width="350" height="285" rx="18" class="p"/><circle cx="28" cy="30" r="5" fill="#22c55e"/><text x="46" y="35" class="m">ACTIVE</text><text x="24" y="74" class="c">Home Lab Server</text><text x="24" y="108" class="k">USE CASE</text><text x="24" y="130" class="s">Local-first data storage + private AI tools</text><text x="24" y="158" class="k">INFRASTRUCTURE</text><text x="24" y="180" class="s">Proxmox VE VMs/LXC · Docker services</text><text x="24" y="204" class="s">TrueNAS datasets · Nextcloud · Immich</text><text x="24" y="232" class="k">OPERATIONS</text><text x="24" y="254" class="s">ClawCode · backups · maintenance plans</text><text x="24" y="278" class="s">Raspberry Pi edge services + monitoring</text></g><g transform="translate(814 96)"><rect width="350" height="285" rx="18" class="p"/><circle cx="28" cy="30" r="5" fill="#e8834a"/><text x="46" y="35" class="m">IN PROGRESS</text><text x="24" y="74" class="c">Professional Profile</text><text x="24" y="108" class="k">USE CASE</text><text x="24" y="130" class="s">Document achievements for recruiters/self</text><text x="24" y="158" class="k">WEB STACK</text><text x="24" y="180" class="s">Astro · HTML/CSS · GitHub Pages</text><text x="24" y="204" class="s">GitHub Actions CI/CD + release assets</text><text x="24" y="232" class="k">ANALYTICS</text><text x="24" y="254" class="s">Plausible-style referrer tracking</text><text x="24" y="278" class="s">README SVG generation + cache busting</text></g></g></svg>
