<svg xmlns="http://www.w3.org/2000/svg" width="1200" height="500" viewBox="0 0 1200 500" role="img" aria-label="Active projects and GitHub activity"><defs><linearGradient id="bg" x1="0" y1="0" x2="1" y2="1"><stop stop-color="#010409"/><stop offset=".55" stop-color="#06101c"/><stop offset="1" stop-color="#0d1117"/></linearGradient><filter id="g"><feGaussianBlur stdDeviation="3" result="b"/><feMerge><feMergeNode in="b"/><feMergeNode in="SourceGraphic"/></feMerge></filter><style>.t{font-family:-apple-system,BlinkMacSystemFont,Segoe UI,system-ui,sans-serif}.h{fill:#f5f7fb;font-size:24px;font-weight:800}.c{fill:#f5f7fb;font-size:21px;font-weight:760}.s{fill:#b6c2d4;font-size:14px}.m{fill:#7e8a9b;font-size:12px;font-weight:700;letter-spacing:1.5px}.p{fill:rgba(17,24,33,.78);stroke:rgba(255,255,255,.10)}.o{stroke:#e8834a;fill:none;stroke-width:2;filter:url(#g)}</style></defs><rect width="1200" height="500" rx="22" fill="url(#bg)"/><g class="t"><rect x=".5" y=".5" width="1199" height="499" rx="22" fill="none" stroke="rgba(255,255,255,.10)"/><g transform="translate(36 34)"><path class="o" d="M0 18h8l4-14 6 28 5-18h8"/><path class="o" d="M0 38h34"/><text x="52" y="27" class="h">Active Projects + GitHub Activity</text><text x="52" y="49" class="m">rendered with GitHub Actions</text></g><g transform="translate(36 100)"><rect width="350" height="150" rx="18" class="p"/><circle cx="28" cy="30" r="5" fill="#22c55e"/><text x="46" y="35" class="m">ACTIVE</text><text x="24" y="76" class="c">60 GHz mmWave radar</text><text x="24" y="112" class="s">ESP32-C6 · live dashboard · WiFi provisioning</text></g><g transform="translate(425 100)"><rect width="350" height="150" rx="18" class="p"/><circle cx="28" cy="30" r="5" fill="#22c55e"/><text x="46" y="35" class="m">ACTIVE</text><text x="24" y="76" class="c">Proxmox homelab</text><text x="24" y="112" class="s">TrueNAS · Nextcloud · Immich · containers</text></g><g transform="translate(814 100)"><rect width="350" height="150" rx="18" class="p"/><circle cx="28" cy="30" r="5" fill="#e8834a"/><text x="46" y="35" class="m">IN PROGRESS</text><text x="24" y="76" class="c">Profile asset system</text><text x="24" y="112" class="s">Astro · GitHub Pages · animated SVG</text></g><rect x="36" y="292" width="530" height="160" rx="18" class="p"/><rect x="600" y="292" width="564" height="160" rx="18" class="p"/><text x="66" y="332" class="s">Stars earned</text><text x="340" y="332" class="c">6</text><text x="66" y="360" class="s">Total commits</text><text x="340" y="360" class="c">367</text><text x="66" y="388" class="s">Total PRs</text><text x="340" y="388" class="c">45</text><text x="66" y="416" class="s">Contributed last year</text><text x="340" y="416" class="c">364</text><text x="630" y="336" class="h">Most Used Languages</text><rect x="630" y="364" width="360" height="10" rx="5" fill="#e8834a"/><text x="630" y="410" class="s">HTML 23% · C 21% · JavaScript 16%</text><text x="630" y="438" class="s">C++ 14% · TypeScript 11% · Other 15%</text></g></svg>
