<?xml version="1.0" encoding="UTF-8"?><svg xmlns="http://www.w3.org/2000/svg" width="1200" height="308" viewBox="0 0 1200 308" role="img"><defs><linearGradient id="bg" x1="0" y1="0" x2="1" y2="1"><stop stop-color="#010409"/><stop offset=".55" stop-color="#06101c"/><stop offset="1" stop-color="#0d1117"/></linearGradient><linearGradient id="line" x1="0" y1="0" x2="1" y2="0"><stop stop-color="#e8834a"/><stop offset=".52" stop-color="#d464df"/><stop offset="1" stop-color="#4c8dff"/></linearGradient><linearGradient id="warm" x1="0" y1="0" x2="1" y2="0"><stop stop-color="#e8834a"/><stop offset="1" stop-color="#ffb26d"/></linearGradient><filter id="og" x="-50%" y="-50%" width="200%" height="200%"><feGaussianBlur stdDeviation="3" result="b"/><feMerge><feMergeNode in="b"/><feMergeNode in="SourceGraphic"/></feMerge></filter><filter id="sg" x="-50%" y="-50%" width="200%" height="200%"><feGaussianBlur stdDeviation="8" result="b"/><feMerge><feMergeNode in="b"/><feMergeNode in="SourceGraphic"/></feMerge></filter><style><![CDATA[.ui{font-family:-apple-system,BlinkMacSystemFont,"Segoe UI",system-ui,sans-serif}.title{fill:#f5f7fb;font-size:58px;font-weight:820;letter-spacing:-2.5px}.eyebrow{fill:#ffb26d;font-size:13px;font-weight:800;letter-spacing:3px}.body{fill:#b6c2d4;font-size:19px}.heading{fill:#f5f7fb;font-size:24px;font-weight:800}.label{fill:#b6c2d4;font-size:14px}.value{fill:#f5f7fb;font-size:15px;font-weight:800}.tiny{fill:#7e8a9b;font-size:12px;font-weight:700;letter-spacing:1.6px}.orange{stroke:#e8834a;fill:none;stroke-width:2;filter:url(#og);animation:pulse 4.5s ease-in-out infinite}.orangeFill{fill:#e8834a;filter:url(#og);animation:pulse 4.5s ease-in-out infinite}.panel{fill:rgba(17,24,33,.78);stroke:rgba(255,255,255,.10);stroke-width:1}.torus{fill:none;stroke-linecap:round;stroke-linejoin:round;stroke-dasharray:820;animation:trace 13s linear infinite}@keyframes pulse{0%,100%{opacity:.72}50%{opacity:1}}@keyframes trace{to{stroke-dashoffset:-820}}]]></style></defs><rect width="1200" height="308" fill="url(#bg)"/><g class="ui"><rect x=".5" y=".5" width="1199" height="307" rx="22" fill="url(#bg)" stroke="rgba(255,255,255,.10)"/><g transform="translate(36 32)"><path class="orange" d="M0 18h8l4-14 6 28 5-18h8"/><path class="orange" d="M0 38h34"/><text x="52" y="27" class="heading">GitHub Status</text><text x="52" y="49" class="tiny">updates nightly via GitHub Actions</text></g><rect x="36" y="84" width="530" height="184" rx="18" class="panel"/><rect x="600" y="84" width="564" height="184" rx="18" class="panel"/><text x="66" y="128" class="label">Stars earned</text><text x="336" y="128" class="value">auto</text><text x="66" y="156" class="label">Total commits</text><text x="336" y="156" class="value">auto</text><text x="66" y="184" class="label">Total PRs</text><text x="336" y="184" class="value">auto</text><text x="66" y="212" class="label">Total issues</text><text x="336" y="212" class="value">auto</text><text x="66" y="240" class="label">Contributed last year</text><text x="336" y="240" class="value">auto</text><circle cx="496" cy="168" r="42" fill="none" stroke="rgba(232,131,74,.22)" stroke-width="8"/><path d="M496 126a42 42 0 0 1 42 42a42 42 0 0 1-17 33" fill="none" stroke="#e8834a" stroke-width="8" stroke-linecap="round" filter="url(#og)"/><text x="496" y="177" fill="#f5f7fb" font-size="24" font-weight="850" text-anchor="middle">B+</text><g transform="translate(630 116)"><text x="0" y="0" class="heading" font-size="21">Most Used Languages</text><g transform="translate(0 28)"><rect width="332" height="10" rx="5" fill="rgba(255,255,255,.06)"/><rect x="0.0" y="0" width="76.4" height="10" fill="#e34c26"/><rect x="76.4" y="0" width="69.7" height="10" fill="#555"/><rect x="146.1" y="0" width="53.1" height="10" fill="#f1e05a"/><rect x="199.2" y="0" width="46.5" height="10" fill="#f34b7d"/><rect x="245.7" y="0" width="36.5" height="10" fill="#3178c6"/><rect x="282.2" y="0" width="49.8" height="10" fill="#6e7681"/></g><circle cx="6" cy="59" r="5" fill="#e34c26"/><text x="18" y="64" class="label">HTML 23%</text><circle cx="182" cy="59" r="5" fill="#555"/><text x="194" y="64" class="label">C 21%</text><circle cx="6" cy="89" r="5" fill="#f1e05a"/><text x="18" y="94" class="label">JavaScript 16%</text><circle cx="182" cy="89" r="5" fill="#f34b7d"/><text x="194" y="94" class="label">C++ 14%</text><circle cx="6" cy="119" r="5" fill="#3178c6"/><text x="18" y="124" class="label">TypeScript 11%</text><circle cx="182" cy="119" r="5" fill="#6e7681"/><text x="194" y="124" class="label">Other 15%</text></g></g></svg>
