<svg xmlns="http://www.w3.org/2000/svg" width="1200" height="320" viewBox="0 0 1200 320" role="img"><defs><linearGradient id="bg" x1="0" y1="0" x2="1" y2="1"><stop stop-color="#010409"/><stop offset=".55" stop-color="#06101c"/><stop offset="1" stop-color="#0d1117"/></linearGradient><linearGradient id="line" x1="0" y1="0" x2="1" y2="0"><stop stop-color="#e8834a" stop-opacity=".08"/><stop offset=".22" stop-color="#e8834a"/><stop offset=".78" stop-color="#ffb26d"/><stop offset="1" stop-color="#e8834a" stop-opacity=".08"/></linearGradient><filter id="og" x="-50%" y="-50%" width="200%" height="200%"><feGaussianBlur stdDeviation="3" result="b"/><feMerge><feMergeNode in="b"/><feMergeNode in="SourceGraphic"/></feMerge></filter><filter id="sg" x="-50%" y="-50%" width="200%" height="200%"><feGaussianBlur stdDeviation="7" result="b"/><feMerge><feMergeNode in="b"/><feMergeNode in="SourceGraphic"/></feMerge></filter><style>.ui{font-family:-apple-system,BlinkMacSystemFont,Segoe UI,system-ui,sans-serif}.title{fill:#f5f7fb;font-size:58px;font-weight:820;letter-spacing:-2.5px}.eyebrow{fill:#ffb26d;font-size:13px;font-weight:800;letter-spacing:3px}.body{fill:#b6c2d4;font-size:19px}.h{fill:#f5f7fb;font-size:24px;font-weight:800}.c{fill:#f5f7fb;font-size:21px;font-weight:760}.s{fill:#b6c2d4;font-size:14px}.m{fill:#7e8a9b;font-size:12px;font-weight:700;letter-spacing:1.5px}.p{fill:rgba(17,24,33,.78);stroke:rgba(255,255,255,.10)}.o{stroke:#e8834a;fill:none;stroke-width:2;filter:url(#og)}.torus{fill:none;stroke-linecap:round;stroke-linejoin:round;stroke-dasharray:820;animation:trace 13s linear infinite}@keyframes trace{to{stroke-dashoffset:-820}}</style></defs><rect width="1200" height="320" rx="22" fill="url(#bg)"/><circle cx="955" cy="98" r="220" fill="#4c8dff" opacity=".08"/><circle cx="930" cy="86" r="110" fill="#6fd3ff" opacity=".10"/><circle cx="118" cy="290" r="180" fill="#e8834a" opacity=".05"/><g opacity=".25"><path d="M0 0V320" stroke="#6fd3ff" opacity=".08"/><path d="M52 0V320" stroke="#6fd3ff" opacity=".08"/><path d="M104 0V320" stroke="#6fd3ff" opacity=".08"/><path d="M156 0V320" stroke="#6fd3ff" opacity=".08"/><path d="M208 0V320" stroke="#6fd3ff" opacity=".08"/><path d="M260 0V320" stroke="#6fd3ff" opacity=".08"/><path d="M312 0V320" stroke="#6fd3ff" opacity=".08"/><path d="M364 0V320" stroke="#6fd3ff" opacity=".08"/><path d="M416 0V320" stroke="#6fd3ff" opacity=".08"/><path d="M468 0V320" stroke="#6fd3ff" opacity=".08"/><path d="M520 0V320" stroke="#6fd3ff" opacity=".08"/><path d="M572 0V320" stroke="#6fd3ff" opacity=".08"/><path d="M624 0V320" stroke="#6fd3ff" opacity=".08"/><path d="M676 0V320" stroke="#6fd3ff" opacity=".08"/><path d="M728 0V320" stroke="#6fd3ff" opacity=".08"/><path d="M780 0V320" stroke="#6fd3ff" opacity=".08"/><path d="M832 0V320" stroke="#6fd3ff" opacity=".08"/><path d="M884 0V320" stroke="#6fd3ff" opacity=".08"/><path d="M936 0V320" stroke="#6fd3ff" opacity=".08"/><path d="M988 0V320" stroke="#6fd3ff" opacity=".08"/><path d="M1040 0V320" stroke="#6fd3ff" opacity=".08"/><path d="M1092 0V320" stroke="#6fd3ff" opacity=".08"/><path d="M1144 0V320" stroke="#6fd3ff" opacity=".08"/><path d="M1196 0V320" stroke="#6fd3ff" opacity=".08"/><path d="M0 0H1200" stroke="#6fd3ff" opacity=".06"/><path d="M0 52H1200" stroke="#6fd3ff" opacity=".06"/><path d="M0 104H1200" stroke="#6fd3ff" opacity=".06"/><path d="M0 156H1200" stroke="#6fd3ff" opacity=".06"/><path d="M0 208H1200" stroke="#6fd3ff" opacity=".06"/><path d="M0 260H1200" stroke="#6fd3ff" opacity=".06"/><path d="M0 312H1200" stroke="#6fd3ff" opacity=".06"/></g><g transform="translate(744 0)"><path class="torus" stroke="rgba(76,141,255,.30)" stroke-width="1.6" d="M62 202 C96 96 232 88 298 168 C350 232 292 310 190 286 C86 262 86 142 188 102 C332 46 484 126 500 222 C514 310 402 334 326 260 C250 186 300 96 404 104 C502 112 548 206 484 274 C404 360 202 334 142 238"/><path class="torus" stroke="rgba(111,211,255,.24)" stroke-width="1.1" d="M86 210 C122 132 232 126 286 184 C330 232 288 282 208 268 C130 252 136 168 216 136 C334 90 454 144 468 220 C480 286 398 304 338 248 C278 190 320 132 402 138 C476 144 508 210 460 258 C396 322 236 306 176 236"/><path class="torus" stroke="rgba(232,131,74,.30)" stroke-width="1.1" filter="url(#og)" d="M34 184 C150 260 292 92 408 158 C518 222 438 342 286 302 C124 260 136 76 304 96 C472 116 544 300 362 326 C206 348 66 282 92 188"/><circle cx="184" cy="102" r="3.6" fill="#e8834a" filter="url(#og)"/><circle cx="404" cy="104" r="3.2" fill="#e8834a" filter="url(#og)"/></g><g class="ui"><text x="30" y="52" class="eyebrow">BIOMEDICAL ENGINEERING FULL STACK</text><text x="30" y="126" class="title"><tspan x="30">Medical sensor systems from prototype</tspan><tspan x="30" dy="62">to real-world study devices.</tspan></text><text x="30" y="252" class="body"><tspan x="30">I build the hardware, firmware, data workflows, housings, and validation paths</tspan><tspan x="30" dy="30">that turn miniature sensing ideas into usable wearable and implantable medical systems.</tspan></text></g></svg>
