<svg xmlns="http://www.w3.org/2000/svg" width="1200" height="420" viewBox="0 0 1200 420" role="img">
<defs>
  <linearGradient id="bg" x1="0" y1="0" x2="1" y2="1"><stop stop-color="#010409"/><stop offset="0.56" stop-color="#06101c"/><stop offset="1" stop-color="#0d1117"/></linearGradient>
  <radialGradient id="blueGlow" cx="82%" cy="28%" r="38%"><stop stop-color="#4c8dff" stop-opacity="0.16"/><stop offset="1" stop-color="#4c8dff" stop-opacity="0"/></radialGradient>
  <radialGradient id="orangeGlow" cx="10%" cy="96%" r="42%"><stop stop-color="#e8834a" stop-opacity="0.10"/><stop offset="1" stop-color="#e8834a" stop-opacity="0"/></radialGradient>
  <filter id="orangeBlur" x="-50%" y="-50%" width="200%" height="200%"><feGaussianBlur stdDeviation="4" result="blur"/><feMerge><feMergeNode in="blur"/><feMergeNode in="SourceGraphic"/></feMerge></filter>
  <style>.ui{font-family:-apple-system,BlinkMacSystemFont,Segoe UI,system-ui,sans-serif}.heroTitle{fill:#f5f7fb;font-size:54px;font-weight:820;letter-spacing:-2.3px}.eyebrow{fill:#ffb26d;font-size:13px;font-weight:800;letter-spacing:3px}.body{fill:#b6c2d4;font-size:19px}.sectionTitle{fill:#f5f7fb;font-size:24px;font-weight:800}.subtle{fill:#7e8a9b;font-size:12px;font-weight:700;letter-spacing:1.5px}.projectTitle{fill:#f5f7fb;font-size:21px;font-weight:760}.summary{fill:#ffb26d;font-size:13.2px;font-weight:650}.bullet{fill:#d7dfec;font-size:14.2px}.card{fill:rgba(17,24,33,.78);stroke:rgba(232,131,74,.18);stroke-width:1}</style>
</defs>
<rect width="1200" height="420" rx="22" fill="url(#bg)"/>
<rect width="1200" height="420" rx="22" fill="url(#blueGlow)"/>
<rect width="1200" height="420" rx="22" fill="url(#orangeGlow)"/>
<rect x="0.5" y="0.5" width="1199" height="419" rx="22" fill="none" stroke="rgba(232,131,74,.16)"/>
<g opacity="0.22"><path d="M0 0V420" stroke="#6fd3ff" opacity=".08"/><path d="M52 0V420" stroke="#6fd3ff" opacity=".08"/><path d="M104 0V420" stroke="#6fd3ff" opacity=".08"/><path d="M156 0V420" stroke="#6fd3ff" opacity=".08"/><path d="M208 0V420" stroke="#6fd3ff" opacity=".08"/><path d="M260 0V420" stroke="#6fd3ff" opacity=".08"/><path d="M312 0V420" stroke="#6fd3ff" opacity=".08"/><path d="M364 0V420" stroke="#6fd3ff" opacity=".08"/><path d="M416 0V420" stroke="#6fd3ff" opacity=".08"/><path d="M468 0V420" stroke="#6fd3ff" opacity=".08"/><path d="M520 0V420" stroke="#6fd3ff" opacity=".08"/><path d="M572 0V420" stroke="#6fd3ff" opacity=".08"/><path d="M624 0V420" stroke="#6fd3ff" opacity=".08"/><path d="M676 0V420" stroke="#6fd3ff" opacity=".08"/><path d="M728 0V420" stroke="#6fd3ff" opacity=".08"/><path d="M780 0V420" stroke="#6fd3ff" opacity=".08"/><path d="M832 0V420" stroke="#6fd3ff" opacity=".08"/><path d="M884 0V420" stroke="#6fd3ff" opacity=".08"/><path d="M936 0V420" stroke="#6fd3ff" opacity=".08"/><path d="M988 0V420" stroke="#6fd3ff" opacity=".08"/><path d="M1040 0V420" stroke="#6fd3ff" opacity=".08"/><path d="M1092 0V420" stroke="#6fd3ff" opacity=".08"/><path d="M1144 0V420" stroke="#6fd3ff" opacity=".08"/><path d="M1196 0V420" stroke="#6fd3ff" opacity=".08"/><path d="M1248 0V420" stroke="#6fd3ff" opacity=".08"/><path d="M0 0H1200" stroke="#6fd3ff" opacity=".08"/><path d="M0 52H1200" stroke="#6fd3ff" opacity=".08"/><path d="M0 104H1200" stroke="#6fd3ff" opacity=".08"/><path d="M0 156H1200" stroke="#6fd3ff" opacity=".08"/><path d="M0 208H1200" stroke="#6fd3ff" opacity=".08"/><path d="M0 260H1200" stroke="#6fd3ff" opacity=".08"/><path d="M0 312H1200" stroke="#6fd3ff" opacity=".08"/><path d="M0 364H1200" stroke="#6fd3ff" opacity=".08"/><path d="M0 416H1200" stroke="#6fd3ff" opacity=".08"/><path d="M0 468H1200" stroke="#6fd3ff" opacity=".08"/></g>
<g transform="translate(770 62) rotate(-18 195 130)"><ellipse cx="195" cy="130" rx="195" ry="130" fill="none" stroke="rgba(76,141,255,.28)" stroke-width="1.4"/><ellipse cx="195" cy="130" rx="152" ry="96" fill="none" stroke="rgba(111,211,255,.22)"/><ellipse cx="195" cy="130" rx="220" ry="70" fill="none" stroke="rgba(232,131,74,.32)" transform="rotate(-38 195 130)"/></g>
<circle cx="900" cy="132" r="4" fill="#e8834a" filter="url(#orangeBlur)"/><circle cx="1106" cy="144" r="4" fill="#e8834a" filter="url(#orangeBlur)"/>
<g class="ui">
  <text x="44" y="78" class="eyebrow">BIOMEDICAL ENGINEERING FULL STACK</text>
  <text x="44" y="152" class="heroTitle"><tspan x="44">Medical sensor systems from prototype</tspan><tspan x="44" dy="60">to real-world study devices.</tspan></text>
  <text x="44" y="300" class="body"><tspan x="44">I build the hardware, firmware, data workflows, housings, and validation paths</tspan><tspan x="44" dy="30">that turn miniature sensing ideas into usable wearable and implantable medical systems.</tspan></text>
</g>
</svg>
